<svg width="800" height="600" xmlns="http://www.w3.org/2000/svg">
  <!-- Background -->
  <rect width="800" height="600" fill="#1e1e1e"/>
  
  <!-- Football pitch background -->
  <rect x="100" y="100" width="600" height="400" rx="8" fill="#0e4422" stroke="#ffffff" stroke-width="2"/>
  
  <!-- Field lines -->
  <line x1="400" y1="100" x2="400" y2="500" stroke="#ffffff" stroke-width="2" stroke-opacity="0.5"/>
  <circle cx="400" cy="300" r="60" stroke="#ffffff" stroke-width="2" stroke-opacity="0.5" fill="none"/>
  <circle cx="400" cy="300" r="5" fill="#ffffff" fill-opacity="0.5"/>
  
  <!-- Goal areas -->
  <rect x="100" y="220" width="80" height="160" stroke="#ffffff" stroke-width="2" stroke-opacity="0.5" fill="none"/>
  <rect x="620" y="220" width="80" height="160" stroke="#ffffff" stroke-width="2" stroke-opacity="0.5" fill="none"/>
  
  <!-- Player cards -->
  <!-- Card 1 -->
  <g transform="translate(150, 200)">
    <rect width="80" height="120" rx="5" fill="#4a6bff" stroke="#ffffff" stroke-width="2"/>
    <rect x="10" y="10" width="60" height="60" rx="30" fill="#252525"/>
    <text x="40" y="45" font-family="Arial" font-size="20" text-anchor="middle" fill="#ffffff">ST</text>
    <text x="40" y="85" font-family="Arial" font-size="12" text-anchor="middle" fill="#ffffff">Ronaldo</text>
    <text x="40" y="105" font-family="Arial" font-size="14" text-anchor="middle" fill="#ffffff">93</text>
  </g>
  
  <!-- Card 2 -->
  <g transform="translate(250, 180)">
    <rect width="80" height="120" rx="5" fill="#4a6bff" stroke="#ffffff" stroke-width="2"/>
    <rect x="10" y="10" width="60" height="60" rx="30" fill="#252525"/>
    <text x="40" y="45" font-family="Arial" font-size="20" text-anchor="middle" fill="#ffffff">CAM</text>
    <text x="40" y="85" font-family="Arial" font-size="12" text-anchor="middle" fill="#ffffff">Messi</text>
    <text x="40" y="105" font-family="Arial" font-size="14" text-anchor="middle" fill="#ffffff">94</text>
  </g>
  
  <!-- Card 3 -->
  <g transform="translate(350, 220)">
    <rect width="80" height="120" rx="5" fill="#4a6bff" stroke="#ffffff" stroke-width="2"/>
    <rect x="10" y="10" width="60" height="60" rx="30" fill="#252525"/>
    <text x="40" y="45" font-family="Arial" font-size="20" text-anchor="middle" fill="#ffffff">CM</text>
    <text x="40" y="85" font-family="Arial" font-size="12" text-anchor="middle" fill="#ffffff">Modric</text>
    <text x="40" y="105" font-family="Arial" font-size="14" text-anchor="middle" fill="#ffffff">88</text>
  </g>
  
  <!-- Card 4 -->
  <g transform="translate(450, 220)">
    <rect width="80" height="120" rx="5" fill="#4a6bff" stroke="#ffffff" stroke-width="2"/>
    <rect x="10" y="10" width="60" height="60" rx="30" fill="#252525"/>
    <text x="40" y="45" font-family="Arial" font-size="20" text-anchor="middle" fill="#ffffff">CDM</text>
    <text x="40" y="85" font-family="Arial" font-size="12" text-anchor="middle" fill="#ffffff">Kante</text>
    <text x="40" y="105" font-family="Arial" font-size="14" text-anchor="middle" fill="#ffffff">89</text>
  </g>
  
  <!-- Card 5 -->
  <g transform="translate(550, 180)">
    <rect width="80" height="120" rx="5" fill="#4a6bff" stroke="#ffffff" stroke-width="2"/>
    <rect x="10" y="10" width="60" height="60" rx="30" fill="#252525"/>
    <text x="40" y="45" font-family="Arial" font-size="20" text-anchor="middle" fill="#ffffff">CB</text>
    <text x="40" y="85" font-family="Arial" font-size="12" text-anchor="middle" fill="#ffffff">Van Dijk</text>
    <text x="40" y="105" font-family="Arial" font-size="14" text-anchor="middle" fill="#ffffff">90</text>
  </g>
  
  <!-- Available player cards at bottom -->
  <rect x="100" y="520" width="600" height="60" rx="5" fill="#252525" stroke="#4a6bff" stroke-width="2"/>
  
  <!-- Mini cards -->
  <g transform="translate(120, 530)">
    <rect width="40" height="40" rx="3" fill="#4a6bff" stroke="#ffffff" stroke-width="1"/>
    <text x="20" y="25" font-family="Arial" font-size="10" text-anchor="middle" fill="#ffffff">ST</text>
  </g>
  
  <g transform="translate(170, 530)">
    <rect width="40" height="40" rx="3" fill="#4a6bff" stroke="#ffffff" stroke-width="1"/>
    <text x="20" y="25" font-family="Arial" font-size="10" text-anchor="middle" fill="#ffffff">LW</text>
  </g>
  
  <g transform="translate(220, 530)">
    <rect width="40" height="40" rx="3" fill="#4a6bff" stroke="#ffffff" stroke-width="1"/>
    <text x="20" y="25" font-family="Arial" font-size="10" text-anchor="middle" fill="#ffffff">RW</text>
  </g>
  
  <g transform="translate(270, 530)">
    <rect width="40" height="40" rx="3" fill="#4a6bff" stroke="#ffffff" stroke-width="1"/>
    <text x="20" y="25" font-family="Arial" font-size="10" text-anchor="middle" fill="#ffffff">CM</text>
  </g>
  
  <g transform="translate(320, 530)">
    <rect width="40" height="40" rx="3" fill="#4a6bff" stroke="#ffffff" stroke-width="1"/>
    <text x="20" y="25" font-family="Arial" font-size="10" text-anchor="middle" fill="#ffffff">CDM</text>
  </g>
  
  <g transform="translate(370, 530)">
    <rect width="40" height="40" rx="3" fill="#4a6bff" stroke="#ffffff" stroke-width="1"/>
    <text x="20" y="25" font-family="Arial" font-size="10" text-anchor="middle" fill="#ffffff">LB</text>
  </g>
  
  <g transform="translate(420, 530)">
    <rect width="40" height="40" rx="3" fill="#4a6bff" stroke="#ffffff" stroke-width="1"/>
    <text x="20" y="25" font-family="Arial" font-size="10" text-anchor="middle" fill="#ffffff">CB</text>
  </g>
  
  <g transform="translate(470, 530)">
    <rect width="40" height="40" rx="3" fill="#4a6bff" stroke="#ffffff" stroke-width="1"/>
    <text x="20" y="25" font-family="Arial" font-size="10" text-anchor="middle" fill="#ffffff">RB</text>
  </g>
  
  <g transform="translate(520, 530)">
    <rect width="40" height="40" rx="3" fill="#4a6bff" stroke="#ffffff" stroke-width="1"/>
    <text x="20" y="25" font-family="Arial" font-size="10" text-anchor="middle" fill="#ffffff">GK</text>
  </g>
  
  <!-- Text label -->
  <text x="400" y="490" font-family="Arial" font-size="24" text-anchor="middle" fill="#ffffff">Eskimos R2G - Squad Builder</text>
</svg> 